# xmcd
#
# Track frame offsets:
#	150
#	32592
#	67516
#	88005
#	104458
#	156922
#	204273
#	250231
#	298989
#
# Disc length: 4402 seconds
#
# Revision: 1
# Processed by: cddbd v1.5.2PL0 Copyright (c) Steve Scherf et al.
# Submitted via: audiograbber 1.83.01
#
DISCID=75113009
DTITLE=Grateful Dead - 95-02-21 Delta Centre, Salt Lake City UT
DYEAR=1900
DGENRE=
TTITLE0=Samba In The Rain
TTITLE1=Truckin'
TTITLE2=I Just Want To Make Love To You
TTITLE3=That Would Be Something
TTITLE4=Drums
TTITLE5=Space
TTITLE6=Visions Of Johanna
TTITLE7=Sugar Magnolia
TTITLE8=Liberty
EXTD=
EXTT0=
EXTT1=
EXTT2=
EXTT3=
EXTT4=
EXTT5=
EXTT6=
EXTT7=
EXTT8=
PLAYORDER=
